<?xml version="1.0" encoding="UTF-8" standalone="no"?>
<!DOCTYPE svg PUBLIC "-//W3C//DTD SVG 1.1//EN" "http://www.w3.org/Graphics/SVG/1.1/DTD/svg11.dtd">
<svg width="100%" height="100%" viewBox="0 0 480 49" version="1.1" xmlns="http://www.w3.org/2000/svg" xmlns:xlink="http://www.w3.org/1999/xlink" xml:space="preserve" xmlns:serif="http://www.serif.com/" style="fill-rule:evenodd;clip-rule:evenodd;stroke-linejoin:round;stroke-miterlimit:2;">
    <g transform="matrix(1,0,0,1,-3.27173,48.307)">
        <g>
            <path d="M32.596,-1.943L32.596,-8.024C32.596,-8.776 32.22,-9.277 31.405,-9.277L31.217,-9.277C28.835,-9.089 25.387,-8.776 21.94,-8.776C17.614,-8.776 14.167,-11.032 14.167,-19.37L14.167,-27.268C14.167,-35.605 17.614,-37.861 21.94,-37.861C25.387,-37.861 28.835,-37.548 31.217,-37.36L31.405,-37.36C32.22,-37.36 32.596,-37.861 32.596,-38.614L32.596,-44.694C32.596,-45.572 32.094,-45.822 31.217,-46.073C29.901,-46.512 26.265,-47.139 21.877,-47.139C12.349,-47.139 3.322,-42.187 3.322,-27.268L3.322,-19.37C3.322,-4.451 12.349,0.564 21.877,0.564C26.265,0.564 29.901,-0.063 31.217,-0.501C32.094,-0.752 32.596,-1.066 32.596,-1.943Z" style="fill-rule:nonzero;"/>
            <path d="M49.082,-1.316L49.082,-46.825C49.082,-47.515 48.58,-48.079 47.891,-48.079L40.243,-48.079C39.554,-48.079 38.927,-47.515 38.927,-46.825L38.927,-1.316C38.927,-0.627 39.554,0 40.243,0L47.891,0C48.58,0 49.082,-0.627 49.082,-1.316Z" style="fill-rule:nonzero;"/>
            <path d="M87.006,-15.734L87.006,-20.122C87.006,-30.089 81.49,-36.42 71.335,-36.42C61.18,-36.42 55.601,-30.089 55.601,-20.122L55.601,-15.734C55.601,-5.767 61.18,0.564 71.335,0.564C81.49,0.564 87.006,-5.767 87.006,-15.734ZM76.914,-15.734C76.914,-10.656 74.971,-8.024 71.335,-8.024C67.699,-8.024 65.693,-10.656 65.693,-15.734L65.693,-20.122C65.693,-25.199 67.699,-27.769 71.335,-27.769C74.971,-27.769 76.914,-25.199 76.914,-20.122L76.914,-15.734Z" style="fill-rule:nonzero;"/>
            <path d="M124.053,-15.358L124.053,-34.602C124.053,-35.291 123.551,-35.918 122.862,-35.918L115.151,-35.918C114.462,-35.918 113.898,-35.291 113.898,-34.602L113.898,-15.358C113.898,-9.403 112.017,-8.024 109.071,-8.024L108.193,-8.024C105.247,-8.024 103.367,-9.403 103.367,-15.358L103.367,-34.602C103.367,-35.291 102.803,-35.918 102.113,-35.918L94.403,-35.918C93.713,-35.918 93.212,-35.291 93.212,-34.602L93.212,-15.358C93.212,-0.627 104.244,0.564 108.193,0.564L109.071,0.564C113.02,0.564 124.053,-0.627 124.053,-15.358Z" style="fill-rule:nonzero;"/>
            <path d="M161.162,-2.883L161.162,-46.825C161.162,-47.515 160.535,-48.079 159.845,-48.079L152.261,-48.079C151.571,-48.079 151.007,-47.515 151.007,-46.825L151.007,-35.981C149.189,-36.232 147.121,-36.42 145.867,-36.42C135.273,-36.42 130.133,-30.214 130.133,-20.372L130.133,-15.483C130.133,-5.328 135.712,0.564 145.867,0.564C150.694,0.564 155.646,-0.188 159.219,-1.066C160.911,-1.442 161.162,-1.881 161.162,-2.883ZM151.007,-8.149C149.816,-7.961 147.935,-7.773 145.867,-7.773C141.416,-7.773 140.288,-11.032 140.288,-15.483L140.288,-20.372C140.288,-24.76 141.416,-28.02 145.867,-28.02C147.371,-28.02 149.503,-27.895 151.007,-27.707L151.007,-8.149Z" style="fill-rule:nonzero;"/>
            <path d="M216.45,-1.943L216.45,-8.024C216.45,-8.776 216.073,-9.277 215.259,-9.277L215.071,-9.277C212.689,-9.089 209.241,-8.776 205.793,-8.776C201.468,-8.776 198.02,-11.032 198.02,-19.37L198.02,-27.268C198.02,-35.605 201.468,-37.861 205.793,-37.861C209.241,-37.861 212.689,-37.548 215.071,-37.36L215.259,-37.36C216.073,-37.36 216.45,-37.861 216.45,-38.614L216.45,-44.694C216.45,-45.572 215.948,-45.822 215.071,-46.073C213.754,-46.512 210.118,-47.139 205.731,-47.139C196.202,-47.139 187.176,-42.187 187.176,-27.268L187.176,-19.37C187.176,-4.451 196.202,0.564 205.731,0.564C210.118,0.564 213.754,-0.063 215.071,-0.501C215.948,-0.752 216.45,-1.066 216.45,-1.943Z" style="fill-rule:nonzero;"/>
            <path d="M253.183,-15.734L253.183,-20.122C253.183,-30.089 247.666,-36.42 237.512,-36.42C227.357,-36.42 221.778,-30.089 221.778,-20.122L221.778,-15.734C221.778,-5.767 227.357,0.564 237.512,0.564C247.666,0.564 253.183,-5.767 253.183,-15.734ZM243.09,-15.734C243.09,-10.656 241.147,-8.024 237.512,-8.024C233.876,-8.024 231.87,-10.656 231.87,-15.734L231.87,-20.122C231.87,-25.199 233.876,-27.769 237.512,-27.769C241.147,-27.769 243.09,-25.199 243.09,-20.122L243.09,-15.734Z" style="fill-rule:nonzero;"/>
            <path d="M290.229,-1.316L290.229,-23.381C290.229,-32.032 285.403,-36.42 276.376,-36.42L273.242,-36.42C264.215,-36.42 259.388,-32.032 259.388,-23.381L259.388,-1.316C259.388,-0.627 259.89,0 260.579,0L268.29,0C268.979,0 269.543,-0.627 269.543,-1.316L269.543,-23.381C269.543,-26.139 269.982,-28.083 273.242,-28.083L276.376,-28.083C279.636,-28.083 280.074,-26.139 280.074,-23.381L280.074,-1.316C280.074,-0.627 280.639,0 281.328,0L289.038,0C289.728,0 290.229,-0.627 290.229,-1.316Z" style="fill-rule:nonzero;"/>
            <path d="M327.338,-2.883L327.338,-46.825C327.338,-47.515 326.712,-48.079 326.022,-48.079L318.437,-48.079C317.748,-48.079 317.184,-47.515 317.184,-46.825L317.184,-35.981C315.366,-36.232 313.297,-36.42 312.043,-36.42C301.45,-36.42 296.31,-30.214 296.31,-20.372L296.31,-15.483C296.31,-5.328 301.889,0.564 312.043,0.564C316.87,0.564 321.822,-0.188 325.395,-1.066C327.088,-1.442 327.338,-1.881 327.338,-2.883ZM317.184,-8.149C315.993,-7.961 314.112,-7.773 312.043,-7.773C307.593,-7.773 306.465,-11.032 306.465,-15.483L306.465,-20.372C306.465,-24.76 307.593,-28.02 312.043,-28.02C313.548,-28.02 315.679,-27.895 317.184,-27.707L317.184,-8.149Z" style="fill-rule:nonzero;"/>
            <path d="M365.388,-15.358L365.388,-34.602C365.388,-35.291 364.886,-35.918 364.197,-35.918L356.487,-35.918C355.797,-35.918 355.233,-35.291 355.233,-34.602L355.233,-15.358C355.233,-9.403 353.353,-8.024 350.406,-8.024L349.529,-8.024C346.583,-8.024 344.702,-9.403 344.702,-15.358L344.702,-34.602C344.702,-35.291 344.138,-35.918 343.448,-35.918L335.738,-35.918C335.049,-35.918 334.547,-35.291 334.547,-34.602L334.547,-15.358C334.547,-0.627 345.58,0.564 349.529,0.564L350.406,0.564C354.355,0.564 365.388,-0.627 365.388,-15.358Z" style="fill-rule:nonzero;"/>
            <path d="M395.915,-1.818L395.915,-7.397C395.915,-8.024 395.351,-8.462 394.724,-8.462L394.599,-8.462C392.28,-8.212 390.524,-8.024 386.951,-8.024C384.131,-8.024 381.811,-9.716 381.811,-15.295L381.811,-20.561C381.811,-26.139 384.131,-27.832 386.951,-27.832C390.524,-27.832 392.28,-27.644 394.599,-27.393L394.724,-27.393C395.351,-27.393 395.915,-27.832 395.915,-28.459L395.915,-34.038C395.915,-34.978 395.539,-35.229 394.599,-35.479C392.844,-35.918 390.023,-36.42 386.262,-36.42C377.423,-36.42 371.656,-30.778 371.656,-20.561L371.656,-15.295C371.656,-5.077 377.423,0.564 386.262,0.564C390.023,0.564 392.844,0.063 394.599,-0.376C395.539,-0.627 395.915,-0.878 395.915,-1.818Z" style="fill-rule:nonzero;"/>
            <path d="M422.18,-29.587L422.18,-34.665C422.18,-35.354 421.616,-35.918 420.926,-35.918L412.339,-35.918L412.339,-42.563C412.339,-43.19 411.774,-43.816 411.21,-43.816L411.022,-43.816L403.375,-42.5C402.685,-42.375 402.121,-41.936 402.121,-41.246L402.121,-9.779C402.121,-1.63 406.258,0.564 413.279,0.564C415.974,0.564 418.983,0.313 420.801,0C421.616,-0.125 422.055,-0.564 422.055,-1.254L422.055,-6.08C422.055,-6.77 421.553,-7.146 420.738,-7.146L416.037,-7.146C413.342,-7.146 412.339,-7.522 412.339,-9.716L412.339,-28.333L420.926,-28.333C421.616,-28.333 422.18,-28.898 422.18,-29.587Z" style="fill-rule:nonzero;"/>
            <path d="M457.471,-15.734L457.471,-20.122C457.471,-30.089 451.955,-36.42 441.8,-36.42C431.645,-36.42 426.067,-30.089 426.067,-20.122L426.067,-15.734C426.067,-5.767 431.645,0.564 441.8,0.564C451.955,0.564 457.471,-5.767 457.471,-15.734ZM447.379,-15.734C447.379,-10.656 445.436,-8.024 441.8,-8.024C438.165,-8.024 436.159,-10.656 436.159,-15.734L436.159,-20.122C436.159,-25.199 438.165,-27.769 441.8,-27.769C445.436,-27.769 447.379,-25.199 447.379,-20.122L447.379,-15.734Z" style="fill-rule:nonzero;"/>
            <path d="M482.733,-29.148L482.733,-35.229C482.733,-36.106 481.793,-36.42 481.041,-36.42C475.086,-36.42 469.946,-35.918 465.934,-34.602C464.492,-34.1 463.991,-33.474 463.991,-32.596L463.991,-1.316C463.991,-0.627 464.618,0 465.307,0L472.892,0C473.581,0 474.146,-0.627 474.146,-1.316L474.146,-27.581C475.462,-27.832 479.223,-27.957 481.041,-27.957C482.232,-27.957 482.733,-28.459 482.733,-29.148Z" style="fill-rule:nonzero;"/>
        </g>
    </g>
</svg>
